<svg width="64" height="64" viewBox="0 0 64 64" fill="none" xmlns="http://www.w3.org/2000/svg">
<rect x="0.5" y="0.5" width="63" height="63" rx="31.5" stroke="#EAECEF"/>
<path fill-rule="evenodd" clip-rule="evenodd" d="M35.5972 31.2708C35.5972 31.094 35.6048 30.9739 35.596 30.855C35.5136 29.7448 35.4132 28.6356 35.3469 27.5243C35.1659 24.495 35.2036 21.4641 35.3101 18.4332C35.3491 17.3193 35.3883 16.2055 35.4213 15.0914C35.4255 14.9505 35.3928 14.8085 35.3705 14.6069C35.2643 14.702 35.2113 14.7279 35.1926 14.7694C34.8738 15.477 34.458 16.1591 34.6289 16.9948C34.6523 17.1088 34.6217 17.2376 34.6003 17.3567C34.4382 18.2626 34.2775 19.1689 34.1037 20.0726C34.058 20.3101 33.9658 20.5383 33.8989 20.7719C33.5652 21.9376 33.2472 23.1081 32.8953 24.2683C32.6192 25.1787 32.273 26.0682 32.0097 26.982C31.645 28.2478 31.3158 29.5243 31.0003 30.8035C30.9082 31.1769 30.7568 31.5604 30.8658 31.9953C31.6547 31.8316 32.4129 31.6414 33.1821 31.5237C33.9676 31.4037 34.7639 31.3549 35.5972 31.2708ZM40.5554 31.095C41.4515 31.1872 42.2666 31.2389 43.0704 31.3641C43.6674 31.457 44.2647 31.6029 44.8339 31.8048C45.2692 31.9591 45.6797 32.2093 46.0661 32.4693C46.4395 32.7205 46.4812 33.1703 46.5831 33.574C46.6129 33.6922 46.6704 33.8034 46.7179 33.9249C46.643 34.1495 46.5638 34.4052 46.4723 34.6565C46.4025 34.8481 46.3248 35.0377 46.237 35.2217C46.1082 35.4917 45.928 35.5877 45.5902 35.6064C44.3134 35.6771 43.0389 35.8073 41.7676 35.9513C41.2745 36.0071 40.7921 36.1585 40.2386 36.2809C40.2304 36.4708 40.1817 36.6951 40.2176 36.905C40.443 38.2248 40.5868 39.5514 40.5682 40.8971C40.5542 40.7318 41.2858 46.0925 41.2287 46.4305C41.1218 47.0639 41.5609 51.1451 41.4884 52.1078C41.447 52.658 41.3836 53.2032 40.9998 53.6519C40.8569 53.8188 40.7275 53.9594 40.4844 53.9274C40.3862 53.9145 40.2776 53.9178 40.1837 53.9466C39.833 54.0543 39.549 54.0123 39.4081 53.6983C39.0972 53.0056 38.4846 50.1903 38.3118 49.535C38.1206 48.8101 38.0383 48.0775 37.9103 47.3473C37.7064 46.1846 37.4462 45.0315 37.2594 43.8663C37.0995 42.8694 37.0181 41.8599 36.8856 40.8582C36.7257 39.6497 36.5489 38.4435 36.3777 37.2366C36.3636 37.1364 36.3363 37.0381 36.3147 36.9373C35.4941 36.9715 34.8054 37.3515 34.0807 37.6141C32.9575 38.0212 31.8323 38.4231 30.7062 38.8218C30.38 38.9373 30.0478 39.036 29.7174 39.1393C29.5528 39.1908 29.4588 39.2843 29.4384 39.4694C29.3871 39.9345 29.3271 40.399 29.256 40.8615C29.1289 41.689 29.0695 42.5192 29.0855 43.3571C29.0937 43.787 29.0608 44.2178 29.0461 44.6481C29.045 44.682 28.8543 50.061 28.7847 50.3867C28.6804 50.8754 28.4002 51.2616 28.2194 51.7001C28.1164 51.9497 27.8819 52.147 27.6971 52.3595C27.4193 52.679 27.1414 52.9995 26.8453 53.3015C26.7545 53.3942 26.6093 53.446 26.4795 53.4852C25.7014 53.7204 23.953 53.0661 23.7451 52.8952C23.5473 52.7326 23.1276 51.05 23.1089 50.9161C22.8083 48.7488 22.8392 46.5693 22.8578 44.3898C22.8667 43.3465 22.8594 42.303 22.8594 41.1853C22.3121 41.1777 21.7309 41.1577 21.1499 41.1647C20.4671 41.1729 19.7916 41.1404 19.1886 40.7801C18.9237 40.6217 18.6805 40.4173 18.4541 40.2051C18.112 39.8846 17.7789 39.5517 17.4687 39.2004C17.1477 38.837 17.1917 38.6285 17.5242 38.2714C18.8001 36.9015 20.4055 36.0515 22.0898 35.3224C22.3767 35.1981 22.658 35.0545 22.9549 34.9616C23.297 34.8544 23.4389 34.6448 23.4949 34.294C23.6954 33.0386 23.92 31.7869 24.1448 30.5355C24.6165 27.91 25.2695 25.3266 25.985 22.7597C26.4616 21.0499 26.9583 19.3447 27.4973 17.6539C27.8565 16.5268 28.3151 15.4319 28.7089 14.3154C28.8091 14.031 28.9725 13.7545 28.8769 13.4129C28.8253 13.2287 29.1132 12.9727 29.4199 12.9603C29.7949 12.9451 30.1727 13.0067 30.5496 13.0289C30.7702 13.042 31.0033 13.0898 31.2091 13.037C31.4358 12.9788 31.6044 13.0151 31.7969 13.1238C32.1468 13.3212 32.3488 13.2845 32.6063 12.9613C32.9096 12.5804 33.1717 12.1659 33.4809 11.7902C33.9692 11.1967 34.5112 10.6593 35.1963 10.286C35.6558 10.0356 36.1256 9.91876 36.6455 10.0623C36.9119 10.1359 37.186 10.1828 37.4576 10.2362C38.7214 10.4846 39.3278 11.3683 39.7101 12.5122C40.0787 13.6152 40.1645 14.7586 40.2929 15.8982C40.4001 16.8491 40.5483 17.7983 40.5938 18.7522C40.6733 20.4207 40.7745 22.0958 40.606 23.7616C40.4987 24.8232 40.6136 25.8741 40.5987 26.9294C40.5839 27.9724 40.534 29.015 40.5127 30.058C40.5057 30.4016 40.5398 30.7461 40.5554 31.095Z" fill="#272727"/>
</svg>
