<svg width="64" height="64" viewBox="0 0 64 64" fill="none" xmlns="http://www.w3.org/2000/svg">
<path d="M32 64C23.8971 64 16.5029 60.9821 10.8651 56.0171L29.0336 43.0515C30.152 42.2533 31.6901 43.1435 31.5552 44.5109L30.8389 51.7765C30.6915 53.2717 32.5 54.1275 33.5624 53.0648L43.3136 43.3136C49.6989 36.9283 49.5592 26.4888 42.8939 20.2811C36.5451 14.3683 26.5499 14.8227 20.4152 20.9576L10.9651 30.4075C9.8992 31.4733 10.7637 33.2869 12.2629 33.1301L19.5341 32.3696C20.9051 32.2261 21.8037 33.768 21.0029 34.8901L7.98293 53.1349C3.0176 47.4971 0 40.1029 0 32C0 14.3269 14.3269 0 32 0C49.6731 0 64 14.3269 64 32C64 49.6731 49.6731 64 32 64Z" fill="currentColor"/>
</svg>
