<svg width="64" height="64" viewBox="0 0 64 64" fill="none" xmlns="http://www.w3.org/2000/svg">
<rect width="64" height="64" rx="32" fill="#D9DBDE"/>
<path fill-rule="evenodd" clip-rule="evenodd" d="M22.4417 18.516C22.3969 18.4369 22.3129 18.3877 22.2221 18.3877C22.083 18.3877 21.9692 18.5011 21.9692 18.6396V51.2165C21.9692 51.4581 21.7726 51.6539 21.5301 51.6539H16.6352C16.3927 51.6539 16.1973 51.4581 16.1973 51.2165V13.0802C16.1973 12.8374 16.3927 12.6416 16.6352 12.6416H47.3481V18.3923L29.4425 18.3877C29.2402 18.3877 29.1126 18.6053 29.2115 18.7805L47.8022 51.6539H41.6302C41.3486 51.6539 41.0899 51.5039 40.9531 51.2612L22.4417 18.516Z" fill="#1B1718"/>
</svg>
